<svg id="485cef29-3847-4bc8-aefe-c95f655a3e7c" data-name="Слой 1" xmlns="http://www.w3.org/2000/svg" viewBox="0 0 63 63">
  <title>logo</title>
  <g>
    <path d="M0-.5H63V63.3H0Z" fill="#3ea7de"/>
    <path d="M63,40.21,47.19,24H36.28v6.61L31,25.2H19V40.8L41.25,63.5H63Z" opacity="0.15" style="isolation: isolate"/>
    <path d="M46.38,30.11a4.05,4.05,0,0,1,1.25.76A4.36,4.36,0,0,1,49,33.18a5.86,5.86,0,0,1,.15,1.32,5.12,5.12,0,0,1-1.78,4,6.06,6.06,0,0,1-2,1.12A7.05,7.05,0,0,1,43,40H36.55a1.57,1.57,0,0,1-1.23-.37,1.88,1.88,0,0,1-.31-1.2V23.51a1.94,1.94,0,0,1,.31-1.21,1.54,1.54,0,0,1,1.23-.39h6.29a8.79,8.79,0,0,1,2.17.26,5,5,0,0,1,1.76.81,3.86,3.86,0,0,1,1.17,1.42,4.69,4.69,0,0,1,.42,2.08,3.94,3.94,0,0,1-.55,2,3.8,3.8,0,0,1-1.42,1.43ZM45.1,34.24a2.3,2.3,0,0,0-.63-1.68,2.49,2.49,0,0,0-1.86-.65h-3.7v4.62h3.7a2.93,2.93,0,0,0,1.21-.22,2.11,2.11,0,0,0,.77-.55A2,2,0,0,0,45,35,2.87,2.87,0,0,0,45.1,34.24Zm-6.19-5.5H42.4a3.09,3.09,0,0,0,.65-.08,1.79,1.79,0,0,0,.63-.27,1.44,1.44,0,0,0,.46-.54,1.92,1.92,0,0,0,.18-.88,1.53,1.53,0,0,0-.49-1.2,1.9,1.9,0,0,0-1.31-.44H38.91ZM28.64,30.86a11.05,11.05,0,0,0-.21-2.19,4.52,4.52,0,0,0-.73-1.74,3.61,3.61,0,0,0-1.43-1.16A5.27,5.27,0,0,0,24,25.34H22v11.2h2.08a5.1,5.1,0,0,0,2.22-.43,3.48,3.48,0,0,0,1.4-1.17,4.74,4.74,0,0,0,.72-1.79A11.84,11.84,0,0,0,28.64,30.86Zm-9,9.14a1.56,1.56,0,0,1-1.23-.37,1.88,1.88,0,0,1-.31-1.2V23.51a1.94,1.94,0,0,1,.31-1.21,1.53,1.53,0,0,1,1.23-.39h4.8a9.1,9.1,0,0,1,3.83.72,6.91,6.91,0,0,1,2.54,1.94,7.63,7.63,0,0,1,1.41,2.85,13.38,13.38,0,0,1,.44,3.44,15,15,0,0,1-.39,3.43A7.92,7.92,0,0,1,31,37.21a6.64,6.64,0,0,1-2.45,2,8.45,8.45,0,0,1-3.79.76Z" fill="#fff"/>
  </g>
</svg>
