<svg style="position: absolute; width: 0; height: 0; overflow: hidden;" version="1.1" xmlns="http://www.w3.org/2000/svg">
    <defs>
        <symbol id="icon-revisions" viewBox="0 0 41 46">
            <path fill="#efefef" d="M24.5 1.33C16.49 1.33 10 3.88 10 7v23.32C10 33.47 16.49 36 24.5 36S39 33.47 39 30.32V7c0-3.12-6.49-5.67-14.5-5.67z"/>
            <ellipse cx="25.08" cy="7.21" fill="none" stroke-width="2" stroke-miterlimit="10" rx="14.71" ry="5.95"/>
            <path fill="none" stroke-width="2" stroke-miterlimit="10" d="M39.79 15.79c0 3-6.59 5.37-14.71 5.37s-14.71-2.4-14.71-5.37m29.42 7.77c0 3.14-6.59 5.69-14.71 5.69s-14.71-2.55-14.71-5.69"/>
            <path fill="none" stroke-width="2" stroke-miterlimit="10" d="M10 8.16v23.29c0 3.14 6.72 5.69 15 5.69s15-2.55 15-5.69V8.16"/>
            <path fill="#efefef" d="M15.5 8.33C7.49 8.33 1 10.88 1 14v23.32C1 40.47 7.49 43 15.5 43S30 40.47 30 37.32V14c0-3.12-6.49-5.67-14.5-5.67z"/>
            <ellipse cx="16.08" cy="14.21" fill="none" stroke-width="2" stroke-miterlimit="10" rx="14.71" ry="5.95"/>
            <path fill="none" stroke-width="2" stroke-miterlimit="10" d="M30.79 22.79c0 3-6.59 5.37-14.71 5.37s-14.71-2.4-14.71-5.37m29.42 7.77c0 3.14-6.59 5.69-14.71 5.69S1.37 33.7 1.37 30.56"/>
            <path fill="none" stroke-width="2" stroke-miterlimit="10" d="M1 15.16v23.29c0 3.14 6.72 5.69 15 5.69s15-2.55 15-5.69V15.16"/>
        </symbol>

        <symbol id="icon-ak-indexes" viewBox="0 0 46 45">
            <g stroke-miterlimit="10">
                <path fill="#efefef" d="M15.79 1.33c-8 0-14.5 2.55-14.5 5.69v23.3c0 3.14 6.49 5.69 14.5 5.69s14.5-2.55 14.5-5.69V7c0-3.12-6.49-5.67-14.5-5.67z"/>
                <ellipse cx="16.38" cy="7.21" fill="none" stroke-width="2" rx="14.71" ry="5.95"/>
                <path fill="none" stroke-width="2" d="M31.09 15.79c0 3-6.59 5.37-14.71 5.37s-14.71-2.4-14.71-5.37m29.42 7.77c0 3.14-6.59 5.69-14.71 5.69S1.67 26.7 1.67 23.56"/>
                <path fill="none" stroke-width="2" d="M1.29 8.16v23.29c0 3.14 6.72 5.69 15 5.69s15-2.55 15-5.69V8.16"/>
                <path fill="#efefef" stroke-width="2" d="M42 29.29a8 8 0 1 0-13-2.51L18.73 37l-.11 4.33 2.33 2.33 3.24-3.24-.62-2.48.89-.89 2.59.52.92-.92-.62-2.48.89-.89 2.59.52 2.61-2.61a7.84 7.84 0 0 0 8.56-1.9z"/>
                <path d="M37.716 20.82l1.414 1.414-1.414 1.414-1.414-1.414z"/>
            </g>
        </symbol>

        <symbol id="icon-view-mode" viewBox="0 0 42 38">
          <g stroke-width="2" stroke-miterlimit="10">
            <rect width="10" height="10" x="16" y=".94" fill="#efefef" rx="1" ry="1"/>
            <rect width="10" height="10" x="1" y="26.94" fill="#efefef" rx="1" ry="1"/>
            <rect width="10" height="10" x="16" y="26.94" fill="#efefef" rx="1" ry="1"/>
            <rect width="10" height="10" x="31" y="26.94" fill="#efefef" rx="1" ry="1"/>
            <path fill="none" d="M6 26v-7.06h30v8.1M21 12.06v14.46"/>
          </g>
        </symbol>

        <symbol id="icon-export" viewBox="0 0 39 38">
            <path fill="#efefef" stroke-width="2" stroke-miterlimit="10" d="M26.95 37H2.05A1 1 0 0 1 1 36V9.89L9.77 1h17.18A1 1 0 0 1 28 2v34a1 1 0 0 1-1.05 1z"/>
            <rect width="26" height="15" x="12" y="16" fill="#efefef" stroke-width="2" stroke-miterlimit="10" rx="2" ry="2"/>
            <path d="M19.81 25a.75.75 0 0 0-.29-.64 3.82 3.82 0 0 0-1.05-.47 7.57 7.57 0 0 1-1.21-.49A2 2 0 0 1 16 21.67a1.72 1.72 0 0 1 .32-1 2.12 2.12 0 0 1 .93-.71 3.52 3.52 0 0 1 1.36-.25A3.2 3.2 0 0 1 20 20a2.17 2.17 0 0 1 .93.78 2 2 0 0 1 .33 1.14h-1.44a1 1 0 0 0-.31-.76 1.27 1.27 0 0 0-.86-.27 1.35 1.35 0 0 0-.83.23.71.71 0 0 0-.3.6.69.69 0 0 0 .35.58 3.94 3.94 0 0 0 1 .44 4.44 4.44 0 0 1 1.82.93 1.86 1.86 0 0 1 .59 1.33 1.71 1.71 0 0 1-.7 1.45 3.05 3.05 0 0 1-1.88.55 3.61 3.61 0 0 1-1.49-.3 2.35 2.35 0 0 1-1-.82 2.11 2.11 0 0 1-.35-1.21h1.44q0 1.18 1.41 1.18a1.38 1.38 0 0 0 .82-.21.69.69 0 0 0 .28-.64zm8.39-1.5a4.29 4.29 0 0 1-.32 1.73 3 3 0 0 1-.88 1.18l1.18.93-.93.83-1.51-1.22a3.2 3.2 0 0 1-.54 0 3 3 0 0 1-1.58-.42 2.82 2.82 0 0 1-1.07-1.21 4.17 4.17 0 0 1-.39-1.81v-.35a4.27 4.27 0 0 1 .38-1.85 2.82 2.82 0 0 1 1.07-1.22 3.13 3.13 0 0 1 3.16 0 2.82 2.82 0 0 1 1.07 1.22 4.26 4.26 0 0 1 .38 1.84zm-1.48-.32a3 3 0 0 0-.4-1.7 1.41 1.41 0 0 0-2.28 0 3 3 0 0 0-.41 1.68v.35a3 3 0 0 0 .4 1.69 1.4 1.4 0 0 0 2.29 0 3 3 0 0 0 .4-1.69zm4.17 2.54H34v1.18h-4.57v-7.12h1.46z"/>
            <path fill="#efefef" stroke-width="2" stroke-miterlimit="10" d="M11 6v4H7"/>
        </symbol>

        <symbol id="icon-even-more" viewBox="0 0 37 37">
          <rect width="35" height="35" x="1" y="1" fill="#efefef" stroke-width="2" stroke-miterlimit="10" rx="2" ry="2"/>
          <circle cx="12" cy="19" r="2" />
          <circle cx="19" cy="19" r="2" />
          <circle cx="26" cy="19" r="2" />
        </symbol>

        <symbol id="icon-youtube" viewBox="0 0 16 16">
          <path d="M6.67 11V5l4 3m2.67-5.07A36.91 36.91 0 0 0 8 2.67a38.83 38.83 0 0 0-5.33.25C1.63 3.27 1.33 5.6 1.33 8s.29 4.73 1.33 5.07a37.31 37.31 0 0 0 5.34.26 37.31 37.31 0 0 0 5.33-.26c1-.34 1.33-2.68 1.33-5.07s-.29-4.73-1.33-5.07z"/>
        </symbol>

        <symbol id="icon-twitter" viewBox="0 0 16 16">
          <path d="M15 4a5.71 5.71 0 0 1-1.64.46 2.87 2.87 0 0 0 1.25-1.59 5.76 5.76 0 0 1-1.81.7 2.82 2.82 0 0 0-2.11-.91 2.86 2.86 0 0 0-2.87 2.87 3 3 0 0 0 .07.65A8.13 8.13 0 0 1 2 3.19 2.85 2.85 0 0 0 2.89 7a2.83 2.83 0 0 1-1.3-.33 2.86 2.86 0 0 0 2.29 2.82 2.8 2.8 0 0 1-1.29 0 2.85 2.85 0 0 0 2.67 2 5.68 5.68 0 0 1-3.55 1.23 5.81 5.81 0 0 1-.68 0A8.1 8.1 0 0 0 5.41 14a8.09 8.09 0 0 0 8.14-8.14v-.37A5.71 5.71 0 0 0 15 4z"/>
        </symbol>

        <symbol id="icon-user" viewBox="0 0 24 24">
            <path d="M12,4A4,4 0 0,1 16,8A4,4 0 0,1 12,12A4,4 0 0,1 8,8A4,4 0 0,1 12,4M12,14C16.42,14 20,15.79 20,18V20H4V18C4,15.79 7.58,14 12,14Z" />
        </symbol>

        <symbol id="icon-eye" viewBox="0 0 24 24">
            <path  d="M12,9A3,3 0 0,0 9,12A3,3 0 0,0 12,15A3,3 0 0,0 15,12A3,3 0 0,0 12,9M12,17A5,5 0 0,1 7,12A5,5 0 0,1 12,7A5,5 0 0,1 17,12A5,5 0 0,1 12,17M12,4.5C7,4.5 2.73,7.61 1,12C2.73,16.39 7,19.5 12,19.5C17,19.5 21.27,16.39 23,12C21.27,7.61 17,4.5 12,4.5Z" />
        </symbol>

        <symbol id="icon-eye-off" viewBox="0 0 24 24">
            <path d="M11.83,9L15,12.16C15,12.11 15,12.05 15,12A3,3 0 0,0 12,9C11.94,9 11.89,9 11.83,9M7.53,9.8L9.08,11.35C9.03,11.56 9,11.77 9,12A3,3 0 0,0 12,15C12.22,15 12.44,14.97 12.65,14.92L14.2,16.47C13.53,16.8 12.79,17 12,17A5,5 0 0,1 7,12C7,11.21 7.2,10.47 7.53,9.8M2,4.27L4.28,6.55L4.73,7C3.08,8.3 1.78,10 1,12C2.73,16.39 7,19.5 12,19.5C13.55,19.5 15.03,19.2 16.38,18.66L16.81,19.08L19.73,22L21,20.73L3.27,3M12,7A5,5 0 0,1 17,12C17,12.64 16.87,13.26 16.64,13.82L19.57,16.75C21.07,15.5 22.27,13.86 23,12C21.27,7.61 17,4.5 12,4.5C10.6,4.5 9.26,4.75 8,5.2L10.17,7.35C10.74,7.13 11.35,7 12,7Z" />
        </symbol>

        <symbol id="project" viewBox="0 0 24 26">
          <path d="M12 2.51c6.16 0 9.83 2.16 10 3.28v14.34l-.19.48c-.85 1.24-4.35 2.9-9.81 2.9s-9-1.66-9.81-2.9L2 20.13V5.79c.15-1.11 3.82-3.28 10-3.28m0-2C5.62.51.43 2.72 0 5.51v15l.39 1c1.33 2.3 6 4 11.61 4s10.27-1.7 11.61-4l.39-1v-15c-.39-2.79-5.59-5-12-5z"/>
          <path d="M22 6l-.19.48C21 7.76 17.46 9.43 12 9.43S3 7.76 2.19 6.52L2 6H0v.42l.39 1c1.33 2.3 6 4 11.61 4s10.27-1.7 11.61-4l.39-1V6zm0 7l-.19.48c-.85 1.24-4.35 2.9-9.81 2.9s-9-1.66-9.81-2.9L2 13.07H0v.42l.39 1c1.33 2.3 6 4 11.61 4s10.27-1.7 11.61-4l.39-1V13z"/>
        </symbol>
    </defs>
</svg>
